<svg xmlns="http://www.w3.org/2000/svg" viewBox="0 0 1128 318" width="1128" height="318" font-family="ui-sans-serif, system-ui, -apple-system, Segoe UI, Roboto, sans-serif"><rect width="100%" height="100%" fill="#ffffff"/><defs><marker id="wire-arrow-end-475569" viewBox="0 0 10 10" refX="9" refY="5" markerWidth="10" markerHeight="10" markerUnits="userSpaceOnUse" orient="auto"><path d="M0,0 L10,5 L0,10 z" fill="#475569"/></marker></defs><g transform="translate(24, 24)"><path d="M 495 100 L 130 190" fill="none" stroke="#475569" stroke-width="1.5" marker-end="url(#wire-arrow-end-475569)"/><rect x="414.15000000000003" y="107.2" width="46.300000000000004" height="16" rx="3" fill="#ffffff" fill-opacity="0.92" stroke="#cbd5e1" stroke-width="0.5"/><text x="437.3" y="117.2" text-anchor="middle" font-size="11" fill="#334155">bezier</text><path d="M 531.6666666666666 100 L 531.6666666666666 133 Q 531.6666666666666 145 519.6666666666666 145 L 422 145 Q 410 145 410 157 L 410 190" fill="none" stroke="#475569" stroke-width="1.5" marker-end="url(#wire-arrow-end-475569)"/><rect x="482.51666666666665" y="107.2" width="70.5" height="16" rx="3" fill="#ffffff" fill-opacity="0.92" stroke="#cbd5e1" stroke-width="0.5"/><text x="517.7666666666667" y="117.2" text-anchor="middle" font-size="11" fill="#334155">smoothstep</text><path d="M 568.3333333333333 100 L 568.3333333333333 145 L 690 145 L 690 190" fill="none" stroke="#475569" stroke-width="1.5" marker-end="url(#wire-arrow-end-475569)"/><rect x="581.1333333333332" y="107.2" width="34.2" height="16" rx="3" fill="#ffffff" fill-opacity="0.92" stroke="#cbd5e1" stroke-width="0.5"/><text x="598.2333333333332" y="117.2" text-anchor="middle" font-size="11" fill="#334155">step</text><path d="M 605 100 L 970 190" fill="none" stroke="#475569" stroke-width="1.5" marker-end="url(#wire-arrow-end-475569)"/><rect x="649.5" y="107.2" width="58.400000000000006" height="16" rx="3" fill="#ffffff" fill-opacity="0.92" stroke="#cbd5e1" stroke-width="0.5"/><text x="678.7" y="117.2" text-anchor="middle" font-size="11" fill="#334155">straight</text><ellipse cx="550" cy="60" rx="110" ry="40" fill="#ffffff" stroke="#d4d4d8" stroke-width="1.5"/><text text-anchor="middle" font-size="13" font-weight="600" fill="#18181b"><tspan x="550" y="65">▶ Source</tspan></text><rect x="20" y="190" width="220" height="80" rx="12" fill="#f0f9ff" stroke="#38bdf8" stroke-width="1.5"/><text text-anchor="middle" font-size="13" font-weight="600" fill="#0c4a6e"><tspan x="130" y="235">→ bezier</tspan></text><rect x="300" y="190" width="220" height="80" rx="12" fill="#ecfdf5" stroke="#34d399" stroke-width="1.5"/><text text-anchor="middle" font-size="13" font-weight="600" fill="#064e3b"><tspan x="410" y="235">→ smoothstep</tspan></text><rect x="580" y="190" width="220" height="80" rx="12" fill="#fffbeb" stroke="#fbbf24" stroke-width="1.5"/><text text-anchor="middle" font-size="13" font-weight="600" fill="#78350f"><tspan x="690" y="235">→ step</tspan></text><rect x="860" y="190" width="220" height="80" rx="12" fill="#fff1f2" stroke="#fb7185" stroke-width="1.5"/><text text-anchor="middle" font-size="13" font-weight="600" fill="#881337"><tspan x="970" y="235">→ straight</tspan></text></g></svg>