<svg xmlns="http://www.w3.org/2000/svg" viewBox="0 0 598 568" width="598" height="568" font-family="ui-sans-serif, system-ui, -apple-system, Segoe UI, Roboto, sans-serif"><rect width="100%" height="100%" fill="#ffffff"/><defs><marker id="wire-arrow-end-475569" viewBox="0 0 10 10" refX="9" refY="5" markerWidth="10" markerHeight="10" markerUnits="userSpaceOnUse" orient="auto"><path d="M0,0 L10,5 L0,10 z" fill="#475569"/></marker></defs><g transform="translate(24, 24)"><path d="M 240 250 L 330 60" fill="none" stroke="#475569" stroke-width="1.5" marker-end="url(#wire-arrow-end-475569)"/><rect x="233.04999999999998" y="200.8" width="46.300000000000004" height="16" rx="3" fill="#ffffff" fill-opacity="0.92" stroke="#cbd5e1" stroke-width="0.5"/><text x="256.2" y="210.8" text-anchor="middle" font-size="11" fill="#334155">bezier</text><path d="M 240 263.3333333333333 L 273 263.3333333333333 Q 285 263.3333333333333 285 251.33333333333331 L 285 212 Q 285 200 297 200 L 330 200" fill="none" stroke="#475569" stroke-width="1.5" marker-end="url(#wire-arrow-end-475569)"/><rect x="220.95" y="236.9333333333333" width="70.5" height="16" rx="3" fill="#ffffff" fill-opacity="0.92" stroke="#cbd5e1" stroke-width="0.5"/><text x="256.2" y="246.9333333333333" text-anchor="middle" font-size="11" fill="#334155">smoothstep</text><path d="M 240 276.66666666666663 L 285 276.66666666666663 L 285 340 L 330 340" fill="none" stroke="#475569" stroke-width="1.5" marker-end="url(#wire-arrow-end-475569)"/><rect x="239.1" y="273.0666666666666" width="34.2" height="16" rx="3" fill="#ffffff" fill-opacity="0.92" stroke="#cbd5e1" stroke-width="0.5"/><text x="256.2" y="283.0666666666666" text-anchor="middle" font-size="11" fill="#334155">step</text><path d="M 240 290 L 330 480" fill="none" stroke="#475569" stroke-width="1.5" marker-end="url(#wire-arrow-end-475569)"/><rect x="227" y="309.2" width="58.400000000000006" height="16" rx="3" fill="#ffffff" fill-opacity="0.92" stroke="#cbd5e1" stroke-width="0.5"/><text x="256.2" y="319.2" text-anchor="middle" font-size="11" fill="#334155">straight</text><ellipse cx="130" cy="270" rx="110" ry="40" fill="#ffffff" stroke="#d4d4d8" stroke-width="1.5"/><text text-anchor="middle" font-size="13" font-weight="600" fill="#18181b"><tspan x="130" y="275">▶ Source</tspan></text><rect x="330" y="20" width="220" height="80" rx="12" fill="#f0f9ff" stroke="#38bdf8" stroke-width="1.5"/><text text-anchor="middle" font-size="13" font-weight="600" fill="#0c4a6e"><tspan x="440" y="65">→ bezier</tspan></text><rect x="330" y="160" width="220" height="80" rx="12" fill="#ecfdf5" stroke="#34d399" stroke-width="1.5"/><text text-anchor="middle" font-size="13" font-weight="600" fill="#064e3b"><tspan x="440" y="205">→ smoothstep</tspan></text><rect x="330" y="300" width="220" height="80" rx="12" fill="#fffbeb" stroke="#fbbf24" stroke-width="1.5"/><text text-anchor="middle" font-size="13" font-weight="600" fill="#78350f"><tspan x="440" y="345">→ step</tspan></text><rect x="330" y="440" width="220" height="80" rx="12" fill="#fff1f2" stroke="#fb7185" stroke-width="1.5"/><text text-anchor="middle" font-size="13" font-weight="600" fill="#881337"><tspan x="440" y="485">→ straight</tspan></text></g></svg>