<svg xmlns="http://www.w3.org/2000/svg" viewBox="0 0 1408 318" width="1408" height="318" font-family="ui-sans-serif, system-ui, -apple-system, Segoe UI, Roboto, sans-serif"><rect width="100%" height="100%" fill="#ffffff"/><defs><marker id="wire-arrow-end-475569" viewBox="0 0 10 10" refX="9" refY="5" markerWidth="10" markerHeight="10" markerUnits="userSpaceOnUse" orient="auto"><path d="M0,0 L10,5 L0,10 z" fill="#475569"/></marker></defs><g transform="translate(24, 24)"><path d="M 130 100 L 635 190" fill="none" stroke="#475569" stroke-width="1.5" marker-end="url(#wire-arrow-end-475569)"/><path d="M 410 100 L 662.5 190" fill="none" stroke="#475569" stroke-width="1.5" marker-end="url(#wire-arrow-end-475569)"/><path d="M 690 100 C 690 145, 690 145, 690 190" fill="none" stroke="#475569" stroke-width="1.5" marker-end="url(#wire-arrow-end-475569)"/><path d="M 970 100 L 717.5 190" fill="none" stroke="#475569" stroke-width="1.5" marker-end="url(#wire-arrow-end-475569)"/><path d="M 1250 100 L 745 190" fill="none" stroke="#475569" stroke-width="1.5" marker-end="url(#wire-arrow-end-475569)"/><ellipse cx="130" cy="60" rx="110" ry="40" fill="#ffffff" stroke="#d4d4d8" stroke-width="1.5"/><text text-anchor="middle" font-size="13" font-weight="600" fill="#18181b"><tspan x="130" y="65">▶ Source A</tspan></text><ellipse cx="410" cy="60" rx="110" ry="40" fill="#ffffff" stroke="#d4d4d8" stroke-width="1.5"/><text text-anchor="middle" font-size="13" font-weight="600" fill="#18181b"><tspan x="410" y="65">▶ Source B</tspan></text><ellipse cx="690" cy="60" rx="110" ry="40" fill="#ffffff" stroke="#d4d4d8" stroke-width="1.5"/><text text-anchor="middle" font-size="13" font-weight="600" fill="#18181b"><tspan x="690" y="65">▶ Source C</tspan></text><ellipse cx="970" cy="60" rx="110" ry="40" fill="#ffffff" stroke="#d4d4d8" stroke-width="1.5"/><text text-anchor="middle" font-size="13" font-weight="600" fill="#18181b"><tspan x="970" y="65">▶ Source D</tspan></text><ellipse cx="1250" cy="60" rx="110" ry="40" fill="#ffffff" stroke="#d4d4d8" stroke-width="1.5"/><text text-anchor="middle" font-size="13" font-weight="600" fill="#18181b"><tspan x="1250" y="65">▶ Source E</tspan></text><rect x="580" y="190" width="220" height="80" rx="12" fill="#f5f3ff" stroke="#a78bfa" stroke-width="1.5"/><text text-anchor="middle" font-size="13" font-weight="600" fill="#4c1d95"><tspan x="690" y="235">✦ Aggregator</tspan></text></g></svg>