<svg xmlns="http://www.w3.org/2000/svg" viewBox="0 0 288 998" width="288" height="998" font-family="ui-sans-serif, system-ui, -apple-system, Segoe UI, Roboto, sans-serif"><rect width="100%" height="100%" fill="#ffffff"/><defs><marker id="wire-arrow-end-475569" viewBox="0 0 10 10" refX="9" refY="5" markerWidth="10" markerHeight="10" markerUnits="userSpaceOnUse" orient="auto"><path d="M0,0 L10,5 L0,10 z" fill="#475569"/></marker><filter id="wire-shadow" x="-20%" y="-20%" width="140%" height="140%"><feGaussianBlur in="SourceAlpha" stdDeviation="3"/><feOffset dx="0" dy="2" result="offsetblur"/><feComponentTransfer><feFuncA type="linear" slope="0.18"/></feComponentTransfer><feMerge><feMergeNode/><feMergeNode in="SourceGraphic"/></feMerge></filter></defs><g transform="translate(24, 24)"><path d="M 130 100 C 130 145, 130 145, 130 190" fill="none" stroke="#475569" stroke-width="1.5" marker-end="url(#wire-arrow-end-475569)"/><path d="M 130 270 C 130 315, 130 315, 130 360" fill="none" stroke="#475569" stroke-width="1.5" marker-end="url(#wire-arrow-end-475569)"/><path d="M 130 440 C 130 485, 130 485, 130 530" fill="none" stroke="#475569" stroke-width="1.5" marker-end="url(#wire-arrow-end-475569)"/><path d="M 130 610 C 130 655, 130 655, 130 700" fill="none" stroke="#475569" stroke-width="1.5" marker-end="url(#wire-arrow-end-475569)"/><path d="M 130 780 C 130 825, 130 825, 130 870" fill="none" stroke="#475569" stroke-width="1.5" marker-end="url(#wire-arrow-end-475569)"/><rect x="20" y="20" width="220" height="80" rx="12" fill="#f5f3ff" stroke="#a78bfa" stroke-width="1.5"/><text text-anchor="middle" font-size="13" font-weight="600" fill="#4c1d95"><tspan x="130" y="65">→ tone defaults</tspan></text><rect x="20" y="190" width="220" height="80" rx="12" fill="#fef3c7" stroke="#d97706" stroke-width="1.5"/><text text-anchor="middle" font-size="13" font-weight="600" fill="#78350f"><tspan x="130" y="235">→ custom fill</tspan></text><rect x="20" y="360" width="220" height="80" rx="12" fill="#ffffff" stroke="#d4d4d8" stroke-width="2" stroke-dasharray="5 3"/><text text-anchor="middle" font-size="13" font-weight="600" fill="#18181b"><tspan x="130" y="405">→ dashed border</tspan></text><rect x="20" y="530" width="220" height="80" rx="28" fill="#dbeafe" stroke="#1d4ed8" stroke-width="1.5"/><text text-anchor="middle" font-size="13" font-weight="600" fill="#18181b"><tspan x="130" y="575">→ big radius</tspan></text><rect x="20" y="700" width="220" height="80" rx="12" fill="#ffffff" stroke="#d4d4d8" stroke-width="1.5" filter="url(#wire-shadow)"/><text text-anchor="middle" font-size="13" font-weight="600" fill="#18181b"><tspan x="130" y="745">→ shadow</tspan></text><rect x="20" y="870" width="220" height="80" rx="12" fill="#ffffff" stroke="#d4d4d8" stroke-width="1.5" opacity="0.4"/><text text-anchor="middle" font-size="13" font-weight="600" fill="#18181b"><tspan x="130" y="915">→ faded</tspan></text></g></svg>