<svg xmlns="http://www.w3.org/2000/svg" viewBox="0 0 598 568" width="598" height="568" font-family="ui-sans-serif, system-ui, -apple-system, Segoe UI, Roboto, sans-serif"><rect width="100%" height="100%" fill="#ffffff"/><defs><marker id="wire-arrow-end-475569" viewBox="0 0 10 10" refX="9" refY="5" markerWidth="10" markerHeight="10" markerUnits="userSpaceOnUse" orient="auto"><path d="M0,0 L10,5 L0,10 z" fill="#475569"/></marker></defs><g transform="translate(24, 24)"><path d="M 130 230 L 440 100" fill="none" stroke="#475569" stroke-width="1.5" marker-end="url(#wire-arrow-end-475569)"/><rect x="150.55" y="191.6" width="70.5" height="16" rx="3" fill="#ffffff" fill-opacity="0.92" stroke="#cbd5e1" stroke-width="0.5"/><text x="185.8" y="201.6" text-anchor="middle" font-size="11" fill="#334155">top→bottom</text><path d="M 130 310 L 440 160" fill="none" stroke="#475569" stroke-width="1.5" marker-end="url(#wire-arrow-end-475569)"/><rect x="150.55" y="268" width="70.5" height="16" rx="3" fill="#ffffff" fill-opacity="0.92" stroke="#cbd5e1" stroke-width="0.5"/><text x="185.8" y="278" text-anchor="middle" font-size="11" fill="#334155">bottom→top</text><path d="M 240 270 L 330 340" fill="none" stroke="#475569" stroke-width="1.5" marker-end="url(#wire-arrow-end-475569)"/><rect x="220.95" y="267.6" width="70.5" height="16" rx="3" fill="#ffffff" fill-opacity="0.92" stroke="#cbd5e1" stroke-width="0.5"/><text x="256.2" y="277.6" text-anchor="middle" font-size="11" fill="#334155">right→left</text><path d="M 20 270 C -267.77161083053346 373.5211267605634, 837.7716108305335 376.4788732394366, 550 480" fill="none" stroke="#475569" stroke-width="1.5" marker-end="url(#wire-arrow-end-475569)"/><rect x="80.14999999999999" y="292.8" width="70.5" height="16" rx="3" fill="#ffffff" fill-opacity="0.92" stroke="#cbd5e1" stroke-width="0.5"/><text x="115.39999999999999" y="302.8" text-anchor="middle" font-size="11" fill="#334155">left→right</text><rect x="20" y="230" width="220" height="80" rx="12" fill="#ffffff" stroke="#d4d4d8" stroke-width="1.5"/><text text-anchor="middle" font-size="13" font-weight="600" fill="#18181b"><tspan x="130" y="275">✦ Hub</tspan></text><rect x="330" y="20" width="220" height="80" rx="12" fill="#f0f9ff" stroke="#38bdf8" stroke-width="1.5"/><text text-anchor="middle" font-size="13" font-weight="600" fill="#0c4a6e"><tspan x="440" y="65">→ north</tspan></text><rect x="330" y="160" width="220" height="80" rx="12" fill="#fffbeb" stroke="#fbbf24" stroke-width="1.5"/><text text-anchor="middle" font-size="13" font-weight="600" fill="#78350f"><tspan x="440" y="205">→ south</tspan></text><rect x="330" y="300" width="220" height="80" rx="12" fill="#ecfdf5" stroke="#34d399" stroke-width="1.5"/><text text-anchor="middle" font-size="13" font-weight="600" fill="#064e3b"><tspan x="440" y="345">→ east</tspan></text><rect x="330" y="440" width="220" height="80" rx="12" fill="#fff1f2" stroke="#fb7185" stroke-width="1.5"/><text text-anchor="middle" font-size="13" font-weight="600" fill="#881337"><tspan x="440" y="485">→ west</tspan></text></g></svg>