<svg xmlns="http://www.w3.org/2000/svg" viewBox="0 0 1128 318" width="1128" height="318" font-family="ui-sans-serif, system-ui, -apple-system, Segoe UI, Roboto, sans-serif"><rect width="100%" height="100%" fill="#ffffff"/><defs><marker id="wire-arrow-end-475569" viewBox="0 0 10 10" refX="9" refY="5" markerWidth="10" markerHeight="10" markerUnits="userSpaceOnUse" orient="auto"><path d="M0,0 L10,5 L0,10 z" fill="#475569"/></marker><marker id="wire-circle-end-16a34a" viewBox="0 0 10 10" refX="5" refY="5" markerWidth="8" markerHeight="8" markerUnits="userSpaceOnUse" orient="auto"><circle cx="5" cy="5" r="4" fill="#16a34a"/></marker><marker id="wire-diamond-end-dc2626" viewBox="0 0 10 10" refX="9" refY="5" markerWidth="10" markerHeight="10" markerUnits="userSpaceOnUse" orient="auto"><path d="M0,5 L5,0 L10,5 L5,10 z" fill="#dc2626"/></marker></defs><g transform="translate(24, 24)"><path d="M 495 100 L 130 190" fill="none" stroke="#475569" stroke-width="1.5" marker-end="url(#wire-arrow-end-475569)"/><rect x="417.175" y="107.2" width="40.25" height="16" rx="3" fill="#ffffff" fill-opacity="0.92" stroke="#cbd5e1" stroke-width="0.5"/><text x="437.3" y="117.2" text-anchor="middle" font-size="11" fill="#334155">arrow</text><path d="M 531.6666666666666 100 L 410 190" fill="none" stroke="#16a34a" stroke-width="1.5" marker-end="url(#wire-circle-end-16a34a)"/><rect x="494.6166666666667" y="107.2" width="46.300000000000004" height="16" rx="3" fill="#ffffff" fill-opacity="0.92" stroke="#cbd5e1" stroke-width="0.5"/><text x="517.7666666666667" y="117.2" text-anchor="middle" font-size="11" fill="#334155">circle</text><path d="M 568.3333333333333 100 L 690 190" fill="none" stroke="#dc2626" stroke-width="1.5" marker-end="url(#wire-diamond-end-dc2626)"/><rect x="572.0583333333333" y="107.2" width="52.35000000000001" height="16" rx="3" fill="#ffffff" fill-opacity="0.92" stroke="#cbd5e1" stroke-width="0.5"/><text x="598.2333333333332" y="117.2" text-anchor="middle" font-size="11" fill="#334155">diamond</text><path d="M 605 100 L 970 190" fill="none" stroke="#6b7280" stroke-width="1.5"/><rect x="661.6" y="107.2" width="34.2" height="16" rx="3" fill="#ffffff" fill-opacity="0.92" stroke="#cbd5e1" stroke-width="0.5"/><text x="678.7" y="117.2" text-anchor="middle" font-size="11" fill="#334155">none</text><ellipse cx="550" cy="60" rx="110" ry="40" fill="#ffffff" stroke="#d4d4d8" stroke-width="1.5"/><text text-anchor="middle" font-size="13" font-weight="600" fill="#18181b"><tspan x="550" y="65">▶ Source</tspan></text><rect x="20" y="190" width="220" height="80" rx="12" fill="#ffffff" stroke="#d4d4d8" stroke-width="1.5"/><text text-anchor="middle" font-size="13" font-weight="600" fill="#18181b"><tspan x="130" y="235">→ arrow</tspan></text><rect x="300" y="190" width="220" height="80" rx="12" fill="#ffffff" stroke="#d4d4d8" stroke-width="1.5"/><text text-anchor="middle" font-size="13" font-weight="600" fill="#18181b"><tspan x="410" y="235">→ circle</tspan></text><rect x="580" y="190" width="220" height="80" rx="12" fill="#ffffff" stroke="#d4d4d8" stroke-width="1.5"/><text text-anchor="middle" font-size="13" font-weight="600" fill="#18181b"><tspan x="690" y="235">→ diamond</tspan></text><rect x="860" y="190" width="220" height="80" rx="12" fill="#ffffff" stroke="#d4d4d8" stroke-width="1.5"/><text text-anchor="middle" font-size="13" font-weight="600" fill="#18181b"><tspan x="970" y="235">→ none</tspan></text></g></svg>