<svg xmlns="http://www.w3.org/2000/svg" viewBox="0 0 598 568" width="598" height="568" font-family="ui-sans-serif, system-ui, -apple-system, Segoe UI, Roboto, sans-serif"><rect width="100%" height="100%" fill="#ffffff"/><defs><marker id="wire-arrow-end-475569" viewBox="0 0 10 10" refX="9" refY="5" markerWidth="10" markerHeight="10" markerUnits="userSpaceOnUse" orient="auto"><path d="M0,0 L10,5 L0,10 z" fill="#475569"/></marker><marker id="wire-circle-end-16a34a" viewBox="0 0 10 10" refX="5" refY="5" markerWidth="8" markerHeight="8" markerUnits="userSpaceOnUse" orient="auto"><circle cx="5" cy="5" r="4" fill="#16a34a"/></marker><marker id="wire-diamond-end-dc2626" viewBox="0 0 10 10" refX="9" refY="5" markerWidth="10" markerHeight="10" markerUnits="userSpaceOnUse" orient="auto"><path d="M0,5 L5,0 L10,5 L5,10 z" fill="#dc2626"/></marker></defs><g transform="translate(24, 24)"><path d="M 240 250 L 330 60" fill="none" stroke="#475569" stroke-width="1.5" marker-end="url(#wire-arrow-end-475569)"/><rect x="236.075" y="200.8" width="40.25" height="16" rx="3" fill="#ffffff" fill-opacity="0.92" stroke="#cbd5e1" stroke-width="0.5"/><text x="256.2" y="210.8" text-anchor="middle" font-size="11" fill="#334155">arrow</text><path d="M 240 263.3333333333333 L 330 200" fill="none" stroke="#16a34a" stroke-width="1.5" marker-end="url(#wire-circle-end-16a34a)"/><rect x="233.04999999999998" y="236.9333333333333" width="46.300000000000004" height="16" rx="3" fill="#ffffff" fill-opacity="0.92" stroke="#cbd5e1" stroke-width="0.5"/><text x="256.2" y="246.9333333333333" text-anchor="middle" font-size="11" fill="#334155">circle</text><path d="M 240 276.66666666666663 L 330 340" fill="none" stroke="#dc2626" stroke-width="1.5" marker-end="url(#wire-diamond-end-dc2626)"/><rect x="230.02499999999998" y="273.0666666666666" width="52.35000000000001" height="16" rx="3" fill="#ffffff" fill-opacity="0.92" stroke="#cbd5e1" stroke-width="0.5"/><text x="256.2" y="283.0666666666666" text-anchor="middle" font-size="11" fill="#334155">diamond</text><path d="M 240 290 L 330 480" fill="none" stroke="#6b7280" stroke-width="1.5"/><rect x="239.1" y="309.2" width="34.2" height="16" rx="3" fill="#ffffff" fill-opacity="0.92" stroke="#cbd5e1" stroke-width="0.5"/><text x="256.2" y="319.2" text-anchor="middle" font-size="11" fill="#334155">none</text><ellipse cx="130" cy="270" rx="110" ry="40" fill="#ffffff" stroke="#d4d4d8" stroke-width="1.5"/><text text-anchor="middle" font-size="13" font-weight="600" fill="#18181b"><tspan x="130" y="275">▶ Source</tspan></text><rect x="330" y="20" width="220" height="80" rx="12" fill="#ffffff" stroke="#d4d4d8" stroke-width="1.5"/><text text-anchor="middle" font-size="13" font-weight="600" fill="#18181b"><tspan x="440" y="65">→ arrow</tspan></text><rect x="330" y="160" width="220" height="80" rx="12" fill="#ffffff" stroke="#d4d4d8" stroke-width="1.5"/><text text-anchor="middle" font-size="13" font-weight="600" fill="#18181b"><tspan x="440" y="205">→ circle</tspan></text><rect x="330" y="300" width="220" height="80" rx="12" fill="#ffffff" stroke="#d4d4d8" stroke-width="1.5"/><text text-anchor="middle" font-size="13" font-weight="600" fill="#18181b"><tspan x="440" y="345">→ diamond</tspan></text><rect x="330" y="440" width="220" height="80" rx="12" fill="#ffffff" stroke="#d4d4d8" stroke-width="1.5"/><text text-anchor="middle" font-size="13" font-weight="600" fill="#18181b"><tspan x="440" y="485">→ none</tspan></text></g></svg>