<svg xmlns="http://www.w3.org/2000/svg" viewBox="0 0 1128 318" width="1128" height="318" font-family="ui-sans-serif, system-ui, -apple-system, Segoe UI, Roboto, sans-serif"><rect width="100%" height="100%" fill="#ffffff"/><defs><marker id="wire-arrow-end-475569" viewBox="0 0 10 10" refX="9" refY="5" markerWidth="10" markerHeight="10" markerUnits="userSpaceOnUse" orient="auto"><path d="M0,0 L10,5 L0,10 z" fill="#475569"/></marker></defs><g transform="translate(24, 24)"><path d="M 550 20 L 130 270" fill="none" stroke="#475569" stroke-width="1.5" marker-end="url(#wire-arrow-end-475569)"/><rect x="447.15" y="56" width="70.5" height="16" rx="3" fill="#ffffff" fill-opacity="0.92" stroke="#cbd5e1" stroke-width="0.5"/><text x="482.4" y="66" text-anchor="middle" font-size="11" fill="#334155">top→bottom</text><path d="M 550 100 L 410 190" fill="none" stroke="#475569" stroke-width="1.5" marker-end="url(#wire-arrow-end-475569)"/><rect x="497.54999999999995" y="107.2" width="70.5" height="16" rx="3" fill="#ffffff" fill-opacity="0.92" stroke="#cbd5e1" stroke-width="0.5"/><text x="532.8" y="117.2" text-anchor="middle" font-size="11" fill="#334155">bottom→top</text><path d="M 660 60 L 580 230" fill="none" stroke="#475569" stroke-width="1.5" marker-end="url(#wire-arrow-end-475569)"/><rect x="618.35" y="81.6" width="70.5" height="16" rx="3" fill="#ffffff" fill-opacity="0.92" stroke="#cbd5e1" stroke-width="0.5"/><text x="653.6" y="91.6" text-anchor="middle" font-size="11" fill="#334155">right→left</text><path d="M 440 60 C 123.77223398316204 116.22568093385215, 1396.227766016838 173.77431906614785, 1080 230" fill="none" stroke="#475569" stroke-width="1.5" marker-end="url(#wire-arrow-end-475569)"/><rect x="527.95" y="81.6" width="70.5" height="16" rx="3" fill="#ffffff" fill-opacity="0.92" stroke="#cbd5e1" stroke-width="0.5"/><text x="563.2" y="91.6" text-anchor="middle" font-size="11" fill="#334155">left→right</text><rect x="440" y="20" width="220" height="80" rx="12" fill="#ffffff" stroke="#d4d4d8" stroke-width="1.5"/><text text-anchor="middle" font-size="13" font-weight="600" fill="#18181b"><tspan x="550" y="65">✦ Hub</tspan></text><rect x="20" y="190" width="220" height="80" rx="12" fill="#f0f9ff" stroke="#38bdf8" stroke-width="1.5"/><text text-anchor="middle" font-size="13" font-weight="600" fill="#0c4a6e"><tspan x="130" y="235">→ north</tspan></text><rect x="300" y="190" width="220" height="80" rx="12" fill="#fffbeb" stroke="#fbbf24" stroke-width="1.5"/><text text-anchor="middle" font-size="13" font-weight="600" fill="#78350f"><tspan x="410" y="235">→ south</tspan></text><rect x="580" y="190" width="220" height="80" rx="12" fill="#ecfdf5" stroke="#34d399" stroke-width="1.5"/><text text-anchor="middle" font-size="13" font-weight="600" fill="#064e3b"><tspan x="690" y="235">→ east</tspan></text><rect x="860" y="190" width="220" height="80" rx="12" fill="#fff1f2" stroke="#fb7185" stroke-width="1.5"/><text text-anchor="middle" font-size="13" font-weight="600" fill="#881337"><tspan x="970" y="235">→ west</tspan></text></g></svg>