<svg xmlns="http://www.w3.org/2000/svg" viewBox="0 0 598 708" width="598" height="708" font-family="ui-sans-serif, system-ui, -apple-system, Segoe UI, Roboto, sans-serif"><rect width="100%" height="100%" fill="#ffffff"/><defs><marker id="wire-arrow-end-475569" viewBox="0 0 10 10" refX="9" refY="5" markerWidth="10" markerHeight="10" markerUnits="userSpaceOnUse" orient="auto"><path d="M0,0 L10,5 L0,10 z" fill="#475569"/></marker></defs><g transform="translate(24, 24)"><path d="M 240 60 L 330 320" fill="none" stroke="#475569" stroke-width="1.5" marker-end="url(#wire-arrow-end-475569)"/><path d="M 240 200 L 330 330" fill="none" stroke="#475569" stroke-width="1.5" marker-end="url(#wire-arrow-end-475569)"/><path d="M 240 340 C 285 340, 285 340, 330 340" fill="none" stroke="#475569" stroke-width="1.5" marker-end="url(#wire-arrow-end-475569)"/><path d="M 240 480 L 330 350" fill="none" stroke="#475569" stroke-width="1.5" marker-end="url(#wire-arrow-end-475569)"/><path d="M 240 620 L 330 360" fill="none" stroke="#475569" stroke-width="1.5" marker-end="url(#wire-arrow-end-475569)"/><ellipse cx="130" cy="60" rx="110" ry="40" fill="#ffffff" stroke="#d4d4d8" stroke-width="1.5"/><text text-anchor="middle" font-size="13" font-weight="600" fill="#18181b"><tspan x="130" y="65">▶ Source A</tspan></text><ellipse cx="130" cy="200" rx="110" ry="40" fill="#ffffff" stroke="#d4d4d8" stroke-width="1.5"/><text text-anchor="middle" font-size="13" font-weight="600" fill="#18181b"><tspan x="130" y="205">▶ Source B</tspan></text><ellipse cx="130" cy="340" rx="110" ry="40" fill="#ffffff" stroke="#d4d4d8" stroke-width="1.5"/><text text-anchor="middle" font-size="13" font-weight="600" fill="#18181b"><tspan x="130" y="345">▶ Source C</tspan></text><ellipse cx="130" cy="480" rx="110" ry="40" fill="#ffffff" stroke="#d4d4d8" stroke-width="1.5"/><text text-anchor="middle" font-size="13" font-weight="600" fill="#18181b"><tspan x="130" y="485">▶ Source D</tspan></text><ellipse cx="130" cy="620" rx="110" ry="40" fill="#ffffff" stroke="#d4d4d8" stroke-width="1.5"/><text text-anchor="middle" font-size="13" font-weight="600" fill="#18181b"><tspan x="130" y="625">▶ Source E</tspan></text><rect x="330" y="300" width="220" height="80" rx="12" fill="#f5f3ff" stroke="#a78bfa" stroke-width="1.5"/><text text-anchor="middle" font-size="13" font-weight="600" fill="#4c1d95"><tspan x="440" y="345">✦ Aggregator</tspan></text></g></svg>