<svg xmlns="http://www.w3.org/2000/svg" viewBox="0 0 1408 318" width="1408" height="318" font-family="ui-sans-serif, system-ui, -apple-system, Segoe UI, Roboto, sans-serif"><rect width="100%" height="100%" fill="#ffffff"/><defs><marker id="wire-arrow-end-0ea5e9" viewBox="0 0 10 10" refX="9" refY="5" markerWidth="10" markerHeight="10" markerUnits="userSpaceOnUse" orient="auto"><path d="M0,0 L10,5 L0,10 z" fill="#0ea5e9"/></marker><marker id="wire-arrow-end-16a34a" viewBox="0 0 10 10" refX="9" refY="5" markerWidth="10" markerHeight="10" markerUnits="userSpaceOnUse" orient="auto"><path d="M0,0 L10,5 L0,10 z" fill="#16a34a"/></marker><marker id="wire-arrow-end-dc2626" viewBox="0 0 10 10" refX="9" refY="5" markerWidth="10" markerHeight="10" markerUnits="userSpaceOnUse" orient="auto"><path d="M0,0 L10,5 L0,10 z" fill="#dc2626"/></marker><marker id="wire-arrow-end-9333ea" viewBox="0 0 10 10" refX="9" refY="5" markerWidth="10" markerHeight="10" markerUnits="userSpaceOnUse" orient="auto"><path d="M0,0 L10,5 L0,10 z" fill="#9333ea"/></marker><marker id="wire-arrow-end-f59e0b" viewBox="0 0 10 10" refX="9" refY="5" markerWidth="10" markerHeight="10" markerUnits="userSpaceOnUse" orient="auto"><path d="M0,0 L10,5 L0,10 z" fill="#f59e0b"/></marker><marker id="wire-arrow-end-475569" viewBox="0 0 10 10" refX="9" refY="5" markerWidth="10" markerHeight="10" markerUnits="userSpaceOnUse" orient="auto"><path d="M0,0 L10,5 L0,10 z" fill="#475569"/></marker></defs><g transform="translate(24, 24)"><path d="M 635 100 L 130 190" fill="none" stroke="#0ea5e9" stroke-width="1" marker-end="url(#wire-arrow-end-0ea5e9)"/><path d="M 662.5 100 L 410 190" fill="none" stroke="#16a34a" stroke-width="4" marker-end="url(#wire-arrow-end-16a34a)"/><path d="M 690 100 C 690 145, 690 145, 690 190" fill="none" stroke="#dc2626" stroke-width="1.5" stroke-dasharray="6 3" marker-end="url(#wire-arrow-end-dc2626)"/><path d="M 717.5 100 L 970 190" fill="none" stroke="#9333ea" stroke-width="1.5" stroke-dasharray="1 3" marker-end="url(#wire-arrow-end-9333ea)"/><path d="M 745 100 L 1250 190" fill="none" stroke="#f59e0b" stroke-width="1.5" marker-end="url(#wire-arrow-end-f59e0b)"/><ellipse cx="690" cy="60" rx="110" ry="40" fill="#ffffff" stroke="#d4d4d8" stroke-width="1.5"/><text text-anchor="middle" font-size="13" font-weight="600" fill="#18181b"><tspan x="690" y="65">▶ Source</tspan></text><rect x="20" y="190" width="220" height="80" rx="12" fill="#ffffff" stroke="#d4d4d8" stroke-width="1.5"/><text text-anchor="middle" font-size="13" font-weight="600" fill="#18181b"><tspan x="130" y="235">→ thin solid</tspan></text><rect x="300" y="190" width="220" height="80" rx="12" fill="#ffffff" stroke="#d4d4d8" stroke-width="1.5"/><text text-anchor="middle" font-size="13" font-weight="600" fill="#18181b"><tspan x="410" y="235">→ thick solid</tspan></text><rect x="580" y="190" width="220" height="80" rx="12" fill="#ffffff" stroke="#d4d4d8" stroke-width="1.5"/><text text-anchor="middle" font-size="13" font-weight="600" fill="#18181b"><tspan x="690" y="235">→ dashed</tspan></text><rect x="860" y="190" width="220" height="80" rx="12" fill="#ffffff" stroke="#d4d4d8" stroke-width="1.5"/><text text-anchor="middle" font-size="13" font-weight="600" fill="#18181b"><tspan x="970" y="235">→ dotted</tspan></text><rect x="1140" y="190" width="220" height="80" rx="12" fill="#ffffff" stroke="#d4d4d8" stroke-width="1.5"/><text text-anchor="middle" font-size="13" font-weight="600" fill="#18181b"><tspan x="1250" y="235">→ low curve</tspan></text></g></svg>