<svg xmlns="http://www.w3.org/2000/svg" viewBox="0 0 288 658" width="288" height="658" font-family="ui-sans-serif, system-ui, -apple-system, Segoe UI, Roboto, sans-serif"><rect width="100%" height="100%" fill="#fafafa"/><defs><marker id="wire-arrow-end-18181b" viewBox="0 0 10 10" refX="9" refY="5" markerWidth="10" markerHeight="10" markerUnits="userSpaceOnUse" orient="auto"><path d="M0,0 L10,5 L0,10 z" fill="#18181b"/></marker><marker id="wire-arrow-end-475569" viewBox="0 0 10 10" refX="9" refY="5" markerWidth="10" markerHeight="10" markerUnits="userSpaceOnUse" orient="auto"><path d="M0,0 L10,5 L0,10 z" fill="#475569"/></marker></defs><g transform="translate(24, 24)"><path d="M 130 100 C 130 145, 130 145, 130 190" fill="none" stroke="#18181b" stroke-width="1" stroke-dasharray="2 2" marker-end="url(#wire-arrow-end-18181b)"/><path d="M 130 270 C 130 315, 130 315, 130 360" fill="none" stroke="#18181b" stroke-width="1" stroke-dasharray="2 2" marker-end="url(#wire-arrow-end-18181b)"/><path d="M 130 440 C 130 485, 130 485, 130 530" fill="none" stroke="#18181b" stroke-width="1" stroke-dasharray="2 2" marker-end="url(#wire-arrow-end-18181b)"/><ellipse cx="130" cy="60" rx="110" ry="40" fill="#ffffff" stroke="#18181b" stroke-width="1.5" stroke-dasharray="3 2"/><text text-anchor="middle" font-size="13" font-weight="600" fill="#18181b"><tspan x="130" y="65">▶ Trigger</tspan></text><rect x="20" y="190" width="220" height="80" rx="12" fill="#ffffff" stroke="#18181b" stroke-width="1.5" stroke-dasharray="3 2"/><text text-anchor="middle" font-size="13" font-weight="600" fill="#18181b"><tspan x="130" y="235">✦ Reason</tspan></text><rect x="20" y="360" width="220" height="80" rx="12" fill="#ffffff" stroke="#18181b" stroke-width="1.5" stroke-dasharray="3 2"/><text text-anchor="middle" font-size="13" font-weight="600" fill="#18181b"><tspan x="130" y="405">→ Act</tspan></text><ellipse cx="130" cy="570" rx="110" ry="40" fill="#ffffff" stroke="#18181b" stroke-width="1.5" stroke-dasharray="3 2"/><text text-anchor="middle" font-size="13" font-weight="600" fill="#18181b"><tspan x="130" y="575">■ End</tspan></text></g></svg>