<svg xmlns="http://www.w3.org/2000/svg" viewBox="0 0 568 828" width="568" height="828" font-family="ui-sans-serif, system-ui, -apple-system, Segoe UI, Roboto, sans-serif"><rect width="100%" height="100%" fill="#0b1120"/><defs><marker id="wire-arrow-end-64748b" viewBox="0 0 10 10" refX="9" refY="5" markerWidth="10" markerHeight="10" markerUnits="userSpaceOnUse" orient="auto"><path d="M0,0 L10,5 L0,10 z" fill="#64748b"/></marker><marker id="wire-arrow-end-475569" viewBox="0 0 10 10" refX="9" refY="5" markerWidth="10" markerHeight="10" markerUnits="userSpaceOnUse" orient="auto"><path d="M0,0 L10,5 L0,10 z" fill="#475569"/></marker><filter id="wire-shadow" x="-20%" y="-20%" width="140%" height="140%"><feGaussianBlur in="SourceAlpha" stdDeviation="3"/><feOffset dx="0" dy="2" result="offsetblur"/><feComponentTransfer><feFuncA type="linear" slope="0.18"/></feComponentTransfer><feMerge><feMergeNode/><feMergeNode in="SourceGraphic"/></feMerge></filter></defs><g transform="translate(24, 24)"><path d="M 270 100 C 270 145, 270 145, 270 190" fill="none" stroke="#64748b" stroke-width="1.5" marker-end="url(#wire-arrow-end-64748b)"/><path d="M 270 270 C 270 315, 270 315, 270 360" fill="none" stroke="#64748b" stroke-width="1.5" marker-end="url(#wire-arrow-end-64748b)"/><path d="M 270 440 L 130 530" fill="none" stroke="#64748b" stroke-width="1.5" marker-end="url(#wire-arrow-end-64748b)"/><rect x="244.775" y="447.2" width="16.05" height="16" rx="3" fill="#1e293b" fill-opacity="0.92" stroke="#334155" stroke-width="0.5"/><text x="252.8" y="457.2" text-anchor="middle" font-size="11" fill="#cbd5e1">a</text><path d="M 270 440 L 410 530" fill="none" stroke="#64748b" stroke-width="1.5" marker-end="url(#wire-arrow-end-64748b)"/><rect x="295.175" y="447.2" width="16.05" height="16" rx="3" fill="#1e293b" fill-opacity="0.92" stroke="#334155" stroke-width="0.5"/><text x="303.2" y="457.2" text-anchor="middle" font-size="11" fill="#cbd5e1">b</text><path d="M 130 610 L 215 700" fill="none" stroke="#64748b" stroke-width="1.5" marker-end="url(#wire-arrow-end-64748b)"/><path d="M 410 610 L 325 700" fill="none" stroke="#64748b" stroke-width="1.5" marker-end="url(#wire-arrow-end-64748b)"/><ellipse cx="270" cy="60" rx="110" ry="40" fill="#1e293b" stroke="#22d3ee" stroke-width="2"/><text text-anchor="middle" font-size="13" font-weight="600" fill="#e2e8f0"><tspan x="270" y="65">▶ Webhook</tspan></text><rect x="160" y="190" width="220" height="80" rx="12" fill="#1e293b" stroke="#a78bfa" stroke-width="2" filter="url(#wire-shadow)"/><text text-anchor="middle" font-size="13" font-weight="600" fill="#e2e8f0"><tspan x="270" y="235">✦ Classify intent</tspan></text><polygon points="160,400 270,360 380,400 270,440" fill="#1e293b" stroke="#f59e0b" stroke-width="2"/><text text-anchor="middle" font-size="13" font-weight="600" fill="#e2e8f0"><tspan x="270" y="405">? Route</tspan></text><rect x="20" y="530" width="220" height="80" rx="12" fill="#022c22" stroke="#34d399" stroke-width="2"/><text text-anchor="middle" font-size="13" font-weight="600" fill="#d1fae5"><tspan x="130" y="575">→ Path A</tspan></text><rect x="300" y="530" width="220" height="80" rx="12" fill="#3b0a0a" stroke="#fb7185" stroke-width="2"/><text text-anchor="middle" font-size="13" font-weight="600" fill="#fecdd3"><tspan x="410" y="575">→ Path B</tspan></text><ellipse cx="270" cy="740" rx="110" ry="40" fill="#0f172a" stroke="#22d3ee" stroke-width="2"/><text text-anchor="middle" font-size="13" font-weight="600" fill="#e2e8f0"><tspan x="270" y="745">■ Done</tspan></text></g></svg>