<svg xmlns="http://www.w3.org/2000/svg" viewBox="0 0 1218 148" width="1218" height="148" font-family="ui-sans-serif, system-ui, -apple-system, Segoe UI, Roboto, sans-serif"><rect width="100%" height="100%" fill="#000000"/><defs><marker id="wire-arrow-end-22d3ee" viewBox="0 0 10 10" refX="9" refY="5" markerWidth="10" markerHeight="10" markerUnits="userSpaceOnUse" orient="auto"><path d="M0,0 L10,5 L0,10 z" fill="#22d3ee"/></marker><marker id="wire-arrow-end-a855f7" viewBox="0 0 10 10" refX="9" refY="5" markerWidth="10" markerHeight="10" markerUnits="userSpaceOnUse" orient="auto"><path d="M0,0 L10,5 L0,10 z" fill="#a855f7"/></marker><marker id="wire-arrow-end-f472b6" viewBox="0 0 10 10" refX="9" refY="5" markerWidth="10" markerHeight="10" markerUnits="userSpaceOnUse" orient="auto"><path d="M0,0 L10,5 L0,10 z" fill="#f472b6"/></marker><marker id="wire-arrow-end-475569" viewBox="0 0 10 10" refX="9" refY="5" markerWidth="10" markerHeight="10" markerUnits="userSpaceOnUse" orient="auto"><path d="M0,0 L10,5 L0,10 z" fill="#475569"/></marker></defs><g transform="translate(24, 24)"><path d="M 240 60 C 285 60, 285 60, 330 60" fill="none" stroke="#22d3ee" stroke-width="2" marker-end="url(#wire-arrow-end-22d3ee)"/><path d="M 550 60 C 595 60, 595 60, 640 60" fill="none" stroke="#a855f7" stroke-width="2" marker-end="url(#wire-arrow-end-a855f7)"/><path d="M 860 60 C 905 60, 905 60, 950 60" fill="none" stroke="#f472b6" stroke-width="2" marker-end="url(#wire-arrow-end-f472b6)"/><ellipse cx="130" cy="60" rx="110" ry="40" fill="#000000" stroke="#22d3ee" stroke-width="3"/><text text-anchor="middle" font-size="13" font-weight="600" fill="#22d3ee"><tspan x="130" y="65">▶ Signal</tspan></text><rect x="330" y="20" width="220" height="80" rx="12" fill="#000000" stroke="#a855f7" stroke-width="3"/><text text-anchor="middle" font-size="13" font-weight="600" fill="#a855f7"><tspan x="440" y="65">✦ Synth</tspan></text><rect x="640" y="20" width="220" height="80" rx="12" fill="#000000" stroke="#f472b6" stroke-width="3"/><text text-anchor="middle" font-size="13" font-weight="600" fill="#f472b6"><tspan x="750" y="65">✱ Pulse</tspan></text><ellipse cx="1060" cy="60" rx="110" ry="40" fill="#000000" stroke="#facc15" stroke-width="3"/><text text-anchor="middle" font-size="13" font-weight="600" fill="#facc15"><tspan x="1060" y="65">■ Drop</tspan></text></g></svg>