<svg xmlns="http://www.w3.org/2000/svg" viewBox="0 0 1528 288" width="1528" height="288" font-family="ui-sans-serif, system-ui, -apple-system, Segoe UI, Roboto, sans-serif"><rect width="100%" height="100%" fill="#0b1120"/><defs><marker id="wire-arrow-end-64748b" viewBox="0 0 10 10" refX="9" refY="5" markerWidth="10" markerHeight="10" markerUnits="userSpaceOnUse" orient="auto"><path d="M0,0 L10,5 L0,10 z" fill="#64748b"/></marker><marker id="wire-arrow-end-475569" viewBox="0 0 10 10" refX="9" refY="5" markerWidth="10" markerHeight="10" markerUnits="userSpaceOnUse" orient="auto"><path d="M0,0 L10,5 L0,10 z" fill="#475569"/></marker><filter id="wire-shadow" x="-20%" y="-20%" width="140%" height="140%"><feGaussianBlur in="SourceAlpha" stdDeviation="3"/><feOffset dx="0" dy="2" result="offsetblur"/><feComponentTransfer><feFuncA type="linear" slope="0.18"/></feComponentTransfer><feMerge><feMergeNode/><feMergeNode in="SourceGraphic"/></feMerge></filter></defs><g transform="translate(24, 24)"><path d="M 240 130 C 285 130, 285 130, 330 130" fill="none" stroke="#64748b" stroke-width="1.5" marker-end="url(#wire-arrow-end-64748b)"/><path d="M 550 130 C 595 130, 595 130, 640 130" fill="none" stroke="#64748b" stroke-width="1.5" marker-end="url(#wire-arrow-end-64748b)"/><path d="M 860 130 L 950 60" fill="none" stroke="#64748b" stroke-width="1.5" marker-end="url(#wire-arrow-end-64748b)"/><rect x="868.1750000000001" y="102.4" width="16.05" height="16" rx="3" fill="#1e293b" fill-opacity="0.92" stroke="#334155" stroke-width="0.5"/><text x="876.2" y="112.4" text-anchor="middle" font-size="11" fill="#cbd5e1">a</text><path d="M 860 130 L 950 200" fill="none" stroke="#64748b" stroke-width="1.5" marker-end="url(#wire-arrow-end-64748b)"/><rect x="868.1750000000001" y="127.6" width="16.05" height="16" rx="3" fill="#1e293b" fill-opacity="0.92" stroke="#334155" stroke-width="0.5"/><text x="876.2" y="137.6" text-anchor="middle" font-size="11" fill="#cbd5e1">b</text><path d="M 1170 60 L 1260 110" fill="none" stroke="#64748b" stroke-width="1.5" marker-end="url(#wire-arrow-end-64748b)"/><path d="M 1170 200 L 1260 150" fill="none" stroke="#64748b" stroke-width="1.5" marker-end="url(#wire-arrow-end-64748b)"/><ellipse cx="130" cy="130" rx="110" ry="40" fill="#1e293b" stroke="#22d3ee" stroke-width="2"/><text text-anchor="middle" font-size="13" font-weight="600" fill="#e2e8f0"><tspan x="130" y="135">▶ Webhook</tspan></text><rect x="330" y="90" width="220" height="80" rx="12" fill="#1e293b" stroke="#a78bfa" stroke-width="2" filter="url(#wire-shadow)"/><text text-anchor="middle" font-size="13" font-weight="600" fill="#e2e8f0"><tspan x="440" y="135">✦ Classify intent</tspan></text><polygon points="640,130 750,90 860,130 750,170" fill="#1e293b" stroke="#f59e0b" stroke-width="2"/><text text-anchor="middle" font-size="13" font-weight="600" fill="#e2e8f0"><tspan x="750" y="135">? Route</tspan></text><rect x="950" y="20" width="220" height="80" rx="12" fill="#022c22" stroke="#34d399" stroke-width="2"/><text text-anchor="middle" font-size="13" font-weight="600" fill="#d1fae5"><tspan x="1060" y="65">→ Path A</tspan></text><rect x="950" y="160" width="220" height="80" rx="12" fill="#3b0a0a" stroke="#fb7185" stroke-width="2"/><text text-anchor="middle" font-size="13" font-weight="600" fill="#fecdd3"><tspan x="1060" y="205">→ Path B</tspan></text><ellipse cx="1370" cy="130" rx="110" ry="40" fill="#0f172a" stroke="#22d3ee" stroke-width="2"/><text text-anchor="middle" font-size="13" font-weight="600" fill="#e2e8f0"><tspan x="1370" y="135">■ Done</tspan></text></g></svg>