<svg xmlns="http://www.w3.org/2000/svg" viewBox="0 0 288 658" width="288" height="658" font-family="ui-sans-serif, system-ui, -apple-system, Segoe UI, Roboto, sans-serif"><rect width="100%" height="100%" fill="#075985"/><defs><marker id="wire-arrow-end-bae6fd" viewBox="0 0 10 10" refX="9" refY="5" markerWidth="10" markerHeight="10" markerUnits="userSpaceOnUse" orient="auto"><path d="M0,0 L10,5 L0,10 z" fill="#bae6fd"/></marker><marker id="wire-arrow-end-475569" viewBox="0 0 10 10" refX="9" refY="5" markerWidth="10" markerHeight="10" markerUnits="userSpaceOnUse" orient="auto"><path d="M0,0 L10,5 L0,10 z" fill="#475569"/></marker></defs><g transform="translate(24, 24)"><path d="M 130 100 C 130 145, 130 145, 130 190" fill="none" stroke="#bae6fd" stroke-width="1.5" stroke-dasharray="4 3" marker-end="url(#wire-arrow-end-bae6fd)"/><path d="M 130 270 C 130 315, 130 315, 130 360" fill="none" stroke="#bae6fd" stroke-width="1.5" stroke-dasharray="4 3" marker-end="url(#wire-arrow-end-bae6fd)"/><path d="M 130 440 C 130 485, 130 485, 130 530" fill="none" stroke="#bae6fd" stroke-width="1.5" stroke-dasharray="4 3" marker-end="url(#wire-arrow-end-bae6fd)"/><ellipse cx="130" cy="60" rx="110" ry="40" fill="#0c4a6e" stroke="#e0f2fe" stroke-width="1.5"/><text text-anchor="middle" font-size="13" font-weight="600" fill="#f0f9ff"><tspan x="130" y="65">▶ Input</tspan></text><rect x="20" y="190" width="220" height="80" rx="0" fill="#0c4a6e" stroke="#e0f2fe" stroke-width="1.5"/><text text-anchor="middle" font-size="13" font-weight="600" fill="#f0f9ff"><tspan x="130" y="235">✦ Process</tspan></text><rect x="20" y="360" width="220" height="80" rx="0" fill="#0c4a6e" stroke="#e0f2fe" stroke-width="1.5"/><text text-anchor="middle" font-size="13" font-weight="600" fill="#f0f9ff"><tspan x="130" y="405">◆ Validate</tspan></text><ellipse cx="130" cy="570" rx="110" ry="40" fill="#0c4a6e" stroke="#e0f2fe" stroke-width="1.5"/><text text-anchor="middle" font-size="13" font-weight="600" fill="#f0f9ff"><tspan x="130" y="575">■ Output</tspan></text></g></svg>