<svg xmlns="http://www.w3.org/2000/svg" viewBox="0 0 1218 148" width="1218" height="148" font-family="ui-sans-serif, system-ui, -apple-system, Segoe UI, Roboto, sans-serif"><rect width="100%" height="100%" fill="#fafafa"/><defs><marker id="wire-arrow-end-a8a29e" viewBox="0 0 10 10" refX="9" refY="5" markerWidth="10" markerHeight="10" markerUnits="userSpaceOnUse" orient="auto"><path d="M0,0 L10,5 L0,10 z" fill="#a8a29e"/></marker><marker id="wire-arrow-end-475569" viewBox="0 0 10 10" refX="9" refY="5" markerWidth="10" markerHeight="10" markerUnits="userSpaceOnUse" orient="auto"><path d="M0,0 L10,5 L0,10 z" fill="#475569"/></marker><filter id="wire-shadow" x="-20%" y="-20%" width="140%" height="140%"><feGaussianBlur in="SourceAlpha" stdDeviation="3"/><feOffset dx="0" dy="2" result="offsetblur"/><feComponentTransfer><feFuncA type="linear" slope="0.18"/></feComponentTransfer><feMerge><feMergeNode/><feMergeNode in="SourceGraphic"/></feMerge></filter></defs><g transform="translate(24, 24)"><path d="M 240 60 C 285 60, 285 60, 330 60" fill="none" stroke="#a8a29e" stroke-width="2" marker-end="url(#wire-arrow-end-a8a29e)"/><path d="M 550 60 C 595 60, 595 60, 640 60" fill="none" stroke="#a8a29e" stroke-width="2" marker-end="url(#wire-arrow-end-a8a29e)"/><path d="M 860 60 C 905 60, 905 60, 950 60" fill="none" stroke="#a8a29e" stroke-width="2" marker-end="url(#wire-arrow-end-a8a29e)"/><ellipse cx="130" cy="60" rx="110" ry="40" fill="#fce7f3" stroke="#f9a8d4" stroke-width="2" filter="url(#wire-shadow)"/><text text-anchor="middle" font-size="13" font-weight="600" fill="#831843"><tspan x="130" y="65">▶ User asks</tspan></text><rect x="330" y="20" width="220" height="80" rx="24" fill="#ede9fe" stroke="#c4b5fd" stroke-width="2" filter="url(#wire-shadow)"/><text text-anchor="middle" font-size="13" font-weight="600" fill="#4c1d95"><tspan x="440" y="65">✦ Think it through</tspan></text><rect x="640" y="20" width="220" height="80" rx="24" fill="#dbeafe" stroke="#93c5fd" stroke-width="2" filter="url(#wire-shadow)"/><text text-anchor="middle" font-size="13" font-weight="600" fill="#1e3a8a"><tspan x="750" y="65">✱ Look up data</tspan></text><rect x="950" y="20" width="220" height="80" rx="24" fill="#dcfce7" stroke="#86efac" stroke-width="2" filter="url(#wire-shadow)"/><text text-anchor="middle" font-size="13" font-weight="600" fill="#14532d"><tspan x="1060" y="65">→ Answer</tspan></text></g></svg>